<?xml version="1.0" encoding="utf-8"?>
<!-- Generator: Adobe Illustrator 16.0.0, SVG Export Plug-In . SVG Version: 6.00 Build 0)  -->
<!DOCTYPE svg PUBLIC "-//W3C//DTD SVG 1.1//EN" "http://www.w3.org/Graphics/SVG/1.1/DTD/svg11.dtd">
<svg version="1.1" id="Ebene_1" xmlns="http://www.w3.org/2000/svg" xmlns:xlink="http://www.w3.org/1999/xlink" x="0px" y="0px"
	 width="287.5px" height="287.1px" viewBox="0 0 287.5 287.1" style="enable-background:new 0 0 287.5 287.1;" xml:space="preserve"
	>
<g>
	<g>
		<g>
			<path style="fill:#FFE100;" d="M231.4,138.8h-47c-1.3,0-1.3,2,0,2h47C232.7,140.9,232.7,138.8,231.4,138.8z"/>
			<path style="fill:#FFE100;" d="M277.7,138.8h-28.6c-1.3,0-1.3,2,0,2h28.6C279,140.9,279,138.8,277.7,138.8z"/>
		</g>
		<g>
			<path style="fill:#FFE100;" d="M138.8,48.3v47c0,1.3,2,1.3,2,0v-47C140.9,47,138.8,47,138.8,48.3z"/>
			<path style="fill:#FFE100;" d="M138.8,2v28.6c0,1.3,2,1.3,2,0V2C140.9,0.7,138.8,0.7,138.8,2z"/>
		</g>
		<g>
			<path style="fill:#FFE100;" d="M48.3,140.9h47c1.3,0,1.3-2,0-2h-47C47,138.8,47,140.9,48.3,140.9z"/>
			<path style="fill:#FFE100;" d="M2,140.9h28.6c1.3,0,1.3-2,0-2H2C0.7,138.8,0.7,140.9,2,140.9z"/>
		</g>
		<g>
			<path style="fill:#FFE100;" d="M140.9,231.4v-47c0-1.3-2-1.3-2,0v47C138.8,232.7,140.9,232.7,140.9,231.4z"/>
			<path style="fill:#FFE100;" d="M140.9,277.7v-28.6c0-1.3-2-1.3-2,0v28.6C138.8,279,140.9,279,140.9,277.7z"/>
		</g>
	</g>
	<g>
		<g>
			<path style="fill:#FFE100;" d="M182.3,64.2l-21.8,37.7c-0.7,1.1,1.1,2.2,1.8,1l21.8-37.7C184.8,64,183,63,182.3,64.2z"/>
		</g>
		<g>
			<path style="fill:#FFE100;" d="M95.6,65.2l21.8,37.7c0.7,1.1,2.4,0.1,1.8-1L97.3,64.2C96.7,63,94.9,64,95.6,65.2z"/>
		</g>
		<g>
			<path style="fill:#FFE100;" d="M97.3,215.5l21.8-37.7c0.7-1.1-1.1-2.2-1.8-1l-21.8,37.7C94.9,215.6,96.7,216.7,97.3,215.5z"/>
		</g>
		<g>
			<path style="fill:#FFE100;" d="M184.1,214.5l-21.8-37.7c-0.7-1.1-2.4-0.1-1.8,1l21.8,37.7C183,216.6,184.8,215.6,184.1,214.5z"/>
		</g>
	</g>
	<g>
		<g>
			<path style="fill:#FFE100;" d="M138.8,53v43.6c0,1.3,2,1.3,2,0V53C140.9,51.7,138.8,51.7,138.8,53z"/>
		</g>
		<g>
			<path style="fill:#FFE100;" d="M64.2,97.3l37.7,21.8c1.1,0.7,2.2-1.1,1-1.8L65.2,95.6C64,94.9,63,96.7,64.2,97.3z"/>
		</g>
		<g>
			<path style="fill:#FFE100;" d="M65.2,184.1l37.7-21.8c1.1-0.7,0.1-2.4-1-1.8l-37.7,21.8C63,183,64,184.8,65.2,184.1z"/>
		</g>
		<g>
			<path style="fill:#FFE100;" d="M140.9,226.6v-43.6c0-1.3-2-1.3-2,0v43.6C138.8,227.9,140.9,227.9,140.9,226.6z"/>
		</g>
		<g>
			<path style="fill:#FFE100;" d="M215.5,182.3l-37.7-21.8c-1.1-0.7-2.2,1.1-1,1.8l37.7,21.8C215.6,184.8,216.7,183,215.5,182.3z"/>
		</g>
		<g>
			<path style="fill:#FFE100;" d="M214.5,95.6l-37.7,21.8c-1.1,0.7-0.1,2.4,1,1.8l37.7-21.8C216.6,96.7,215.6,94.9,214.5,95.6z"/>
		</g>
	</g>
	<g>
		<g>
			<path style="fill:#FFE100;" d="M72,73.4l32.3,32.3c0.9,0.9,2.4-0.5,1.4-1.4L73.4,72C72.5,71,71,72.5,72,73.4z"/>
			<path style="fill:#FFE100;" d="M55.1,56.6l10.1,10.1c0.9,0.9,2.4-0.5,1.4-1.4L56.6,55.1C55.6,54.2,54.2,55.6,55.1,56.6z"/>
		</g>
		<g>
			<path style="fill:#FFE100;" d="M48.4,165.4l44.1-11.8c1.3-0.3,0.7-2.3-0.5-2l-44.1,11.8C46.6,163.8,47.1,165.7,48.4,165.4z"/>
			<path style="fill:#FFE100;" d="M25.4,171.6l13.8-3.7c1.3-0.3,0.7-2.3-0.5-2l-13.8,3.7C23.6,169.9,24.1,171.9,25.4,171.6z"/>
		</g>
		<g>
			<path style="fill:#FFE100;" d="M116.2,231.8l11.8-44.1c0.3-1.3-1.6-1.8-2-0.5l-11.8,44.1C113.9,232.6,115.9,233.1,116.2,231.8z"
				/>
			<path style="fill:#FFE100;" d="M110.1,254.8l3.7-13.8c0.3-1.3-1.6-1.8-2-0.5l-3.7,13.8C107.8,255.6,109.7,256.1,110.1,254.8z"/>
		</g>
		<g>
			<path style="fill:#FFE100;" d="M207.7,206.3L175.5,174c-0.9-0.9-2.4,0.5-1.4,1.4l32.3,32.3C207.2,208.6,208.6,207.2,207.7,206.3z
				"/>
			<path style="fill:#FFE100;" d="M224.6,223.1L214.4,213c-0.9-0.9-2.4,0.5-1.4,1.4l10.1,10.1C224,225.5,225.5,224,224.6,223.1z"/>
		</g>
		<g>
			<path style="fill:#FFE100;" d="M231.3,114.3l-44.1,11.8c-1.3,0.3-0.7,2.3,0.5,2l44.1-11.8C233.1,115.9,232.6,113.9,231.3,114.3z"
				/>
			<path style="fill:#FFE100;" d="M254.3,108.1l-13.8,3.7c-1.3,0.3-0.7,2.3,0.5,2l13.8-3.7C256.1,109.7,255.6,107.8,254.3,108.1z"/>
		</g>
		<g>
			<path style="fill:#FFE100;" d="M163.4,47.8l-11.8,44.1c-0.3,1.3,1.6,1.8,2,0.5l11.8-44.1C165.7,47.1,163.8,46.6,163.4,47.8z"/>
			<path style="fill:#FFE100;" d="M169.6,24.8l-3.7,13.8c-0.3,1.3,1.6,1.8,2,0.5l3.7-13.8C171.9,24.1,169.9,23.6,169.6,24.8z"/>
		</g>
	</g>
	<g>
		<g>
			<path style="fill:#FFE100;" d="M206.3,72L174,104.2c-0.9,0.9,0.5,2.4,1.4,1.4l32.3-32.3C208.6,72.5,207.2,71,206.3,72z"/>
			<path style="fill:#FFE100;" d="M223.1,55.1L213,65.2c-0.9,0.9,0.5,2.4,1.4,1.4l10.1-10.1C225.5,55.6,224,54.2,223.1,55.1z"/>
		</g>
		<g>
			<path style="fill:#FFE100;" d="M114.3,48.4l11.8,44.1c0.3,1.3,2.3,0.7,2-0.5l-11.8-44.1C115.9,46.6,113.9,47.1,114.3,48.4z"/>
			<path style="fill:#FFE100;" d="M108.1,25.4l3.7,13.8c0.3,1.3,2.3,0.7,2-0.5l-3.7-13.8C109.7,23.6,107.8,24.1,108.1,25.4z"/>
		</g>
		<g>
			<path style="fill:#FFE100;" d="M47.8,116.2L91.9,128c1.3,0.3,1.8-1.6,0.5-2l-44.1-11.8C47.1,113.9,46.6,115.9,47.8,116.2z"/>
			<path style="fill:#FFE100;" d="M24.8,110.1l13.8,3.7c1.3,0.3,1.8-1.6,0.5-2l-13.8-3.7C24.1,107.8,23.6,109.7,24.8,110.1z"/>
		</g>
		<g>
			<path style="fill:#FFE100;" d="M73.4,207.7l32.3-32.3c0.9-0.9-0.5-2.4-1.4-1.4L72,206.3C71,207.2,72.5,208.6,73.4,207.7z"/>
			<path style="fill:#FFE100;" d="M56.6,224.6l10.1-10.1c0.9-0.9-0.5-2.4-1.4-1.4l-10.1,10.1C54.2,224,55.6,225.5,56.6,224.6z"/>
		</g>
		<g>
			<path style="fill:#FFE100;" d="M165.4,231.3l-11.8-44.1c-0.3-1.3-2.3-0.7-2,0.5l11.8,44.1C163.8,233.1,165.7,232.6,165.4,231.3z"
				/>
			<path style="fill:#FFE100;" d="M171.6,254.3l-3.7-13.8c-0.3-1.3-2.3-0.7-2,0.5l3.7,13.8C169.9,256.1,171.9,255.6,171.6,254.3z"/>
		</g>
		<g>
			<path style="fill:#FFE100;" d="M231.8,163.4l-44.1-11.8c-1.3-0.3-1.8,1.6-0.5,2l44.1,11.8C232.6,165.7,233.1,163.8,231.8,163.4z"
				/>
			<path style="fill:#FFE100;" d="M254.8,169.6l-13.8-3.7c-1.3-0.3-1.8,1.6-0.5,2l13.8,3.7C255.6,171.9,256.1,169.9,254.8,169.6z"/>
		</g>
	</g>
</g>
<g>
</g>
<g>
</g>
<g>
</g>
<g>
</g>
<g>
</g>
<g>
</g>
<g>
</g>
<g>
</g>
<g>
</g>
<g>
</g>
<g>
</g>
<g>
</g>
<g>
</g>
<g>
</g>
<g>
</g>
</svg>
